<mxfile host="app.diagrams.net" modified="2023-09-20T09:43:10.057Z" agent="Mozilla/5.0 (Windows NT 10.0; Win64; x64) AppleWebKit/537.36 (KHTML, like Gecko) Chrome/116.0.0.0 Safari/537.36" etag="CSy7RXVx-6IuwxWT00QC" version="21.7.5" type="device">
  <diagram name="Страница 1" id="ykMWDdC_rx6XrkEppTeH">
    <mxGraphModel dx="1434" dy="1927" grid="1" gridSize="10" guides="1" tooltips="1" connect="1" arrows="1" fold="1" page="1" pageScale="1" pageWidth="827" pageHeight="1169" math="0" shadow="0">
      <root>
        <mxCell id="0" />
        <mxCell id="1" parent="0" />
        <mxCell id="GtSsYqe8CseLy04RSJ3Y-30" value="Користувач" style="shape=umlActor;verticalLabelPosition=bottom;verticalAlign=top;html=1;outlineConnect=0;" parent="1" vertex="1">
          <mxGeometry x="317" y="290" width="30" height="60" as="geometry" />
        </mxCell>
        <mxCell id="GtSsYqe8CseLy04RSJ3Y-42" style="edgeStyle=orthogonalEdgeStyle;rounded=0;orthogonalLoop=1;jettySize=auto;html=1;exitX=1;exitY=0.5;exitDx=0;exitDy=0;entryX=0;entryY=0.5;entryDx=0;entryDy=0;dashed=1;" parent="1" source="GtSsYqe8CseLy04RSJ3Y-31" target="GtSsYqe8CseLy04RSJ3Y-32" edge="1">
          <mxGeometry relative="1" as="geometry">
            <mxPoint x="580.1428571428571" y="160" as="targetPoint" />
          </mxGeometry>
        </mxCell>
        <mxCell id="GtSsYqe8CseLy04RSJ3Y-31" value="Вимірювання фізичного стану" style="ellipse;whiteSpace=wrap;html=1;" parent="1" vertex="1">
          <mxGeometry x="500" y="160" width="200" height="80" as="geometry" />
        </mxCell>
        <mxCell id="GtSsYqe8CseLy04RSJ3Y-32" value="Ведення журналу фізичного здоров&#39;я" style="ellipse;whiteSpace=wrap;html=1;" parent="1" vertex="1">
          <mxGeometry x="760" y="160" width="200" height="80" as="geometry" />
        </mxCell>
        <mxCell id="GtSsYqe8CseLy04RSJ3Y-43" style="edgeStyle=orthogonalEdgeStyle;rounded=0;orthogonalLoop=1;jettySize=auto;html=1;exitX=1;exitY=0.5;exitDx=0;exitDy=0;entryX=0;entryY=0.5;entryDx=0;entryDy=0;dashed=1;" parent="1" source="GtSsYqe8CseLy04RSJ3Y-33" target="GtSsYqe8CseLy04RSJ3Y-34" edge="1">
          <mxGeometry relative="1" as="geometry" />
        </mxCell>
        <mxCell id="GtSsYqe8CseLy04RSJ3Y-46" style="edgeStyle=orthogonalEdgeStyle;rounded=0;orthogonalLoop=1;jettySize=auto;html=1;exitX=0.5;exitY=1;exitDx=0;exitDy=0;entryX=0.5;entryY=0;entryDx=0;entryDy=0;dashed=1;" parent="1" source="GtSsYqe8CseLy04RSJ3Y-33" target="GtSsYqe8CseLy04RSJ3Y-35" edge="1">
          <mxGeometry relative="1" as="geometry" />
        </mxCell>
        <mxCell id="GtSsYqe8CseLy04RSJ3Y-33" value="Вивчення поезії" style="ellipse;whiteSpace=wrap;html=1;" parent="1" vertex="1">
          <mxGeometry x="499" y="336" width="200" height="80" as="geometry" />
        </mxCell>
        <mxCell id="GtSsYqe8CseLy04RSJ3Y-34" value="Поетичні заходи та обговорення творів у літературних групах" style="ellipse;whiteSpace=wrap;html=1;" parent="1" vertex="1">
          <mxGeometry x="759" y="336" width="200" height="80" as="geometry" />
        </mxCell>
        <mxCell id="GtSsYqe8CseLy04RSJ3Y-35" value="Написання власних віршів" style="ellipse;whiteSpace=wrap;html=1;" parent="1" vertex="1">
          <mxGeometry x="499" y="456" width="200" height="80" as="geometry" />
        </mxCell>
        <mxCell id="GtSsYqe8CseLy04RSJ3Y-44" value="" style="endArrow=classic;html=1;rounded=0;entryX=0;entryY=0.5;entryDx=0;entryDy=0;" parent="1" target="aLgI8jUsE_1bzLg6kQHe-1" edge="1">
          <mxGeometry width="50" height="50" relative="1" as="geometry">
            <mxPoint x="360" y="320" as="sourcePoint" />
            <mxPoint x="510" y="220" as="targetPoint" />
          </mxGeometry>
        </mxCell>
        <mxCell id="GtSsYqe8CseLy04RSJ3Y-48" value="" style="swimlane;startSize=0;" parent="1" vertex="1">
          <mxGeometry x="466" y="20" width="764" height="540" as="geometry">
            <mxRectangle x="200" y="125" width="50" height="40" as="alternateBounds" />
          </mxGeometry>
        </mxCell>
        <mxCell id="_MfQHNvoKg8z1ilOdqCw-5" value="include" style="text;html=1;strokeColor=none;fillColor=none;align=center;verticalAlign=middle;whiteSpace=wrap;rounded=0;" parent="GtSsYqe8CseLy04RSJ3Y-48" vertex="1">
          <mxGeometry x="230" y="45" width="60" height="30" as="geometry" />
        </mxCell>
        <mxCell id="_MfQHNvoKg8z1ilOdqCw-6" value="include" style="text;html=1;strokeColor=none;fillColor=none;align=center;verticalAlign=middle;whiteSpace=wrap;rounded=0;" parent="GtSsYqe8CseLy04RSJ3Y-48" vertex="1">
          <mxGeometry x="230" y="150" width="60" height="30" as="geometry" />
        </mxCell>
        <mxCell id="_MfQHNvoKg8z1ilOdqCw-16" value="include" style="text;html=1;strokeColor=none;fillColor=none;align=center;verticalAlign=middle;whiteSpace=wrap;rounded=0;" parent="GtSsYqe8CseLy04RSJ3Y-48" vertex="1">
          <mxGeometry x="229" y="326" width="60" height="30" as="geometry" />
        </mxCell>
        <mxCell id="_MfQHNvoKg8z1ilOdqCw-20" value="extend" style="text;html=1;strokeColor=none;fillColor=none;align=center;verticalAlign=middle;whiteSpace=wrap;rounded=0;rotation=-90;" parent="GtSsYqe8CseLy04RSJ3Y-48" vertex="1">
          <mxGeometry x="119" y="401" width="60" height="30" as="geometry" />
        </mxCell>
        <mxCell id="_MfQHNvoKg8z1ilOdqCw-22" value="" style="endArrow=classic;html=1;rounded=0;exitX=1;exitY=1;exitDx=0;exitDy=0;" parent="GtSsYqe8CseLy04RSJ3Y-48" source="GtSsYqe8CseLy04RSJ3Y-34" edge="1">
          <mxGeometry width="50" height="50" relative="1" as="geometry">
            <mxPoint x="503" y="446" as="sourcePoint" />
            <mxPoint x="824" y="440" as="targetPoint" />
          </mxGeometry>
        </mxCell>
        <mxCell id="aLgI8jUsE_1bzLg6kQHe-1" value="Авторизувати &lt;br&gt;користувача" style="ellipse;whiteSpace=wrap;html=1;" vertex="1" parent="GtSsYqe8CseLy04RSJ3Y-48">
          <mxGeometry x="544" y="260" width="200" height="80" as="geometry" />
        </mxCell>
        <mxCell id="aLgI8jUsE_1bzLg6kQHe-7" value="" style="curved=1;endArrow=classic;html=1;rounded=0;entryX=0.28;entryY=0.025;entryDx=0;entryDy=0;dashed=1;entryPerimeter=0;" edge="1" parent="GtSsYqe8CseLy04RSJ3Y-48" target="aLgI8jUsE_1bzLg6kQHe-1">
          <mxGeometry width="50" height="50" relative="1" as="geometry">
            <mxPoint x="224" y="200" as="sourcePoint" />
            <mxPoint x="346" y="260" as="targetPoint" />
            <Array as="points">
              <mxPoint x="304" y="216" />
            </Array>
          </mxGeometry>
        </mxCell>
        <mxCell id="aLgI8jUsE_1bzLg6kQHe-9" value="" style="curved=1;endArrow=classic;html=1;rounded=0;entryX=0.5;entryY=1;entryDx=0;entryDy=0;dashed=1;" edge="1" parent="GtSsYqe8CseLy04RSJ3Y-48" target="aLgI8jUsE_1bzLg6kQHe-1">
          <mxGeometry width="50" height="50" relative="1" as="geometry">
            <mxPoint x="230" y="463" as="sourcePoint" />
            <mxPoint x="567" y="540" as="targetPoint" />
            <Array as="points">
              <mxPoint x="314" y="470" />
              <mxPoint x="574" y="420" />
            </Array>
          </mxGeometry>
        </mxCell>
        <mxCell id="aLgI8jUsE_1bzLg6kQHe-10" value="" style="curved=1;endArrow=classic;html=1;rounded=0;dashed=1;" edge="1" parent="GtSsYqe8CseLy04RSJ3Y-48">
          <mxGeometry width="50" height="50" relative="1" as="geometry">
            <mxPoint x="204" y="326" as="sourcePoint" />
            <mxPoint x="554" y="280" as="targetPoint" />
            <Array as="points">
              <mxPoint x="284" y="278" />
              <mxPoint x="424" y="270" />
            </Array>
          </mxGeometry>
        </mxCell>
        <mxCell id="aLgI8jUsE_1bzLg6kQHe-11" value="include" style="text;html=1;strokeColor=none;fillColor=none;align=center;verticalAlign=middle;whiteSpace=wrap;rounded=0;rotation=15;" vertex="1" parent="GtSsYqe8CseLy04RSJ3Y-48">
          <mxGeometry x="504" y="80" width="60" height="30" as="geometry" />
        </mxCell>
        <mxCell id="aLgI8jUsE_1bzLg6kQHe-12" value="include" style="text;html=1;strokeColor=none;fillColor=none;align=center;verticalAlign=middle;whiteSpace=wrap;rounded=0;rotation=15;" vertex="1" parent="GtSsYqe8CseLy04RSJ3Y-48">
          <mxGeometry x="544" y="190" width="60" height="30" as="geometry" />
        </mxCell>
        <mxCell id="aLgI8jUsE_1bzLg6kQHe-25" value="include" style="text;html=1;strokeColor=none;fillColor=none;align=center;verticalAlign=middle;whiteSpace=wrap;rounded=0;" vertex="1" parent="GtSsYqe8CseLy04RSJ3Y-48">
          <mxGeometry x="352" y="250" width="60" height="30" as="geometry" />
        </mxCell>
        <mxCell id="aLgI8jUsE_1bzLg6kQHe-26" value="include" style="text;html=1;strokeColor=none;fillColor=none;align=center;verticalAlign=middle;whiteSpace=wrap;rounded=0;" vertex="1" parent="GtSsYqe8CseLy04RSJ3Y-48">
          <mxGeometry x="484" y="305" width="60" height="30" as="geometry" />
        </mxCell>
        <mxCell id="aLgI8jUsE_1bzLg6kQHe-28" value="include" style="text;html=1;strokeColor=none;fillColor=none;align=center;verticalAlign=middle;whiteSpace=wrap;rounded=0;rotation=-15;" vertex="1" parent="GtSsYqe8CseLy04RSJ3Y-48">
          <mxGeometry x="404" y="420" width="60" height="30" as="geometry" />
        </mxCell>
        <mxCell id="_MfQHNvoKg8z1ilOdqCw-2" value="Літературна спільнота" style="shape=umlActor;verticalLabelPosition=bottom;verticalAlign=top;html=1;outlineConnect=0;" parent="1" vertex="1">
          <mxGeometry x="1305" y="430" width="30" height="60" as="geometry" />
        </mxCell>
        <mxCell id="_MfQHNvoKg8z1ilOdqCw-3" value="" style="endArrow=classic;html=1;rounded=0;entryX=1;entryY=0.5;entryDx=0;entryDy=0;" parent="1" target="GtSsYqe8CseLy04RSJ3Y-34" edge="1">
          <mxGeometry width="50" height="50" relative="1" as="geometry">
            <mxPoint x="1290" y="440" as="sourcePoint" />
            <mxPoint x="1069" y="366" as="targetPoint" />
            <Array as="points" />
          </mxGeometry>
        </mxCell>
        <mxCell id="_MfQHNvoKg8z1ilOdqCw-8" style="edgeStyle=orthogonalEdgeStyle;rounded=0;orthogonalLoop=1;jettySize=auto;html=1;endArrow=block;endFill=0;" parent="1" edge="1">
          <mxGeometry relative="1" as="geometry">
            <mxPoint x="1316" y="82" as="sourcePoint" />
            <mxPoint x="332" y="282" as="targetPoint" />
            <Array as="points">
              <mxPoint x="1316" y="82" />
              <mxPoint x="1316" y="2" />
              <mxPoint x="332" y="2" />
            </Array>
          </mxGeometry>
        </mxCell>
        <mxCell id="_MfQHNvoKg8z1ilOdqCw-4" value="Наглядач за&lt;br&gt;станом здоров&#39;я" style="shape=umlActor;verticalLabelPosition=bottom;verticalAlign=top;html=1;outlineConnect=0;" parent="1" vertex="1">
          <mxGeometry x="1300" y="90" width="30" height="60" as="geometry" />
        </mxCell>
        <mxCell id="_MfQHNvoKg8z1ilOdqCw-7" value="" style="endArrow=classic;html=1;rounded=0;entryX=1;entryY=0.5;entryDx=0;entryDy=0;" parent="1" target="GtSsYqe8CseLy04RSJ3Y-32" edge="1">
          <mxGeometry width="50" height="50" relative="1" as="geometry">
            <mxPoint x="1270" y="160" as="sourcePoint" />
            <mxPoint x="960" y="119.66" as="targetPoint" />
          </mxGeometry>
        </mxCell>
        <mxCell id="_MfQHNvoKg8z1ilOdqCw-9" style="edgeStyle=orthogonalEdgeStyle;rounded=0;orthogonalLoop=1;jettySize=auto;html=1;endArrow=block;endFill=0;" parent="1" edge="1">
          <mxGeometry relative="1" as="geometry">
            <mxPoint x="1318" y="516" as="sourcePoint" />
            <mxPoint x="333" y="376" as="targetPoint" />
            <Array as="points">
              <mxPoint x="1318" y="596" />
              <mxPoint x="333" y="596" />
            </Array>
          </mxGeometry>
        </mxCell>
        <mxCell id="_MfQHNvoKg8z1ilOdqCw-11" value="Поради щодо здоров&#39;я" style="ellipse;whiteSpace=wrap;html=1;" parent="1" vertex="1">
          <mxGeometry x="630" y="30" width="200" height="80" as="geometry" />
        </mxCell>
        <mxCell id="_MfQHNvoKg8z1ilOdqCw-12" value="" style="endArrow=classic;html=1;rounded=0;entryX=1;entryY=0.5;entryDx=0;entryDy=0;" parent="1" target="_MfQHNvoKg8z1ilOdqCw-11" edge="1">
          <mxGeometry width="50" height="50" relative="1" as="geometry">
            <mxPoint x="1270" y="110" as="sourcePoint" />
            <mxPoint x="940" y="40" as="targetPoint" />
          </mxGeometry>
        </mxCell>
        <mxCell id="_MfQHNvoKg8z1ilOdqCw-14" value="" style="endArrow=none;html=1;rounded=0;entryX=0;entryY=0.5;entryDx=0;entryDy=0;" parent="1" target="_MfQHNvoKg8z1ilOdqCw-11" edge="1">
          <mxGeometry width="50" height="50" relative="1" as="geometry">
            <mxPoint x="430" y="70" as="sourcePoint" />
            <mxPoint x="590" y="70" as="targetPoint" />
          </mxGeometry>
        </mxCell>
        <mxCell id="_MfQHNvoKg8z1ilOdqCw-15" value="" style="endArrow=classic;html=1;rounded=0;" parent="1" edge="1">
          <mxGeometry width="50" height="50" relative="1" as="geometry">
            <mxPoint x="430" y="70" as="sourcePoint" />
            <mxPoint x="350" y="280" as="targetPoint" />
          </mxGeometry>
        </mxCell>
        <mxCell id="_MfQHNvoKg8z1ilOdqCw-17" value="" style="endArrow=classic;html=1;rounded=0;entryX=1;entryY=0.5;entryDx=0;entryDy=0;" parent="1" target="GtSsYqe8CseLy04RSJ3Y-35" edge="1">
          <mxGeometry width="50" height="50" relative="1" as="geometry">
            <mxPoint x="1290" y="480" as="sourcePoint" />
            <mxPoint x="1139" y="426" as="targetPoint" />
            <Array as="points" />
          </mxGeometry>
        </mxCell>
        <mxCell id="aLgI8jUsE_1bzLg6kQHe-4" value="" style="curved=1;endArrow=classic;html=1;rounded=0;entryX=0.675;entryY=0;entryDx=0;entryDy=0;exitX=1;exitY=1;exitDx=0;exitDy=0;dashed=1;entryPerimeter=0;" edge="1" parent="1" source="_MfQHNvoKg8z1ilOdqCw-11" target="aLgI8jUsE_1bzLg6kQHe-1">
          <mxGeometry width="50" height="50" relative="1" as="geometry">
            <mxPoint x="890" y="150" as="sourcePoint" />
            <mxPoint x="940" y="100" as="targetPoint" />
            <Array as="points">
              <mxPoint x="890" y="100" />
              <mxPoint x="1150" y="150" />
            </Array>
          </mxGeometry>
        </mxCell>
        <mxCell id="aLgI8jUsE_1bzLg6kQHe-6" value="" style="curved=1;endArrow=classic;html=1;rounded=0;entryX=0.5;entryY=0;entryDx=0;entryDy=0;exitX=1;exitY=1;exitDx=0;exitDy=0;dashed=1;" edge="1" parent="1" source="GtSsYqe8CseLy04RSJ3Y-32" target="aLgI8jUsE_1bzLg6kQHe-1">
          <mxGeometry width="50" height="50" relative="1" as="geometry">
            <mxPoint x="932" y="239" as="sourcePoint" />
            <mxPoint x="1241" y="421" as="targetPoint" />
            <Array as="points">
              <mxPoint x="1070" y="220" />
            </Array>
          </mxGeometry>
        </mxCell>
        <mxCell id="aLgI8jUsE_1bzLg6kQHe-8" value="" style="curved=1;endArrow=classic;html=1;rounded=0;entryX=0;entryY=1;entryDx=0;entryDy=0;dashed=1;" edge="1" parent="1" target="aLgI8jUsE_1bzLg6kQHe-1">
          <mxGeometry width="50" height="50" relative="1" as="geometry">
            <mxPoint x="940" y="350" as="sourcePoint" />
            <mxPoint x="1157" y="498" as="targetPoint" />
            <Array as="points" />
          </mxGeometry>
        </mxCell>
      </root>
    </mxGraphModel>
  </diagram>
</mxfile>
